<svg width="14" height="14" viewBox="0 0 14 14" fill="none" xmlns="http://www.w3.org/2000/svg">
<path d="M12.5436 8.53755C11.5619 8.81283 10.5247 8.82185 9.53836 8.56369C8.55205 8.30553 7.65223 7.78949 6.93131 7.06857C6.21039 6.34765 5.69436 5.44783 5.43619 4.46152C5.17803 3.47522 5.18706 2.43797 5.46233 1.4563C4.4945 1.72568 3.61413 2.24394 2.90892 2.95944C2.20371 3.67495 1.69827 4.56274 1.44295 5.53438C1.18763 6.50602 1.19133 7.52759 1.45369 8.49736C1.71605 9.46712 2.22791 10.3512 2.93829 11.0616C3.64866 11.772 4.53276 12.2838 5.50253 12.5462C6.47229 12.8086 7.49387 12.8123 8.4655 12.5569C9.43714 12.3016 10.3249 11.7962 11.0404 11.091C11.7559 10.3858 12.2742 9.50538 12.5436 8.53755Z" stroke="black" stroke-linecap="round" stroke-linejoin="round"/>
</svg>
