<svg width="64" height="64" viewBox="0 0 64 64" fill="none" xmlns="http://www.w3.org/2000/svg">
<g filter="url(#filter0_d_223_220)">
<rect x="16" y="14" width="32" height="32" rx="16" fill="white" shape-rendering="crispEdges"/>
<path d="M32 33.75C34.0711 33.75 35.75 32.0711 35.75 30C35.75 27.9289 34.0711 26.25 32 26.25C29.9289 26.25 28.25 27.9289 28.25 30C28.25 32.0711 29.9289 33.75 32 33.75Z" stroke="black" stroke-linecap="round" stroke-linejoin="round"/>
<path d="M32 24.25V23" stroke="black" stroke-linecap="round" stroke-linejoin="round"/>
<path d="M27.9313 25.9313L27.05 25.05" stroke="black" stroke-linecap="round" stroke-linejoin="round"/>
<path d="M26.25 30H25" stroke="black" stroke-linecap="round" stroke-linejoin="round"/>
<path d="M27.9313 34.0687L27.05 34.95" stroke="black" stroke-linecap="round" stroke-linejoin="round"/>
<path d="M32 35.75V37" stroke="black" stroke-linecap="round" stroke-linejoin="round"/>
<path d="M36.0686 34.0687L36.9499 34.95" stroke="black" stroke-linecap="round" stroke-linejoin="round"/>
<path d="M37.75 30H39" stroke="black" stroke-linecap="round" stroke-linejoin="round"/>
<path d="M36.0686 25.9313L36.9499 25.05" stroke="black" stroke-linecap="round" stroke-linejoin="round"/>
<rect x="12" y="10" width="40" height="40" rx="20" stroke="black" stroke-opacity="0.1" stroke-width="8" shape-rendering="crispEdges"/>
</g>
<defs>
<filter id="filter0_d_223_220" x="0" y="0" width="64" height="64" filterUnits="userSpaceOnUse" color-interpolation-filters="sRGB">
<feFlood flood-opacity="0" result="BackgroundImageFix"/>
<feColorMatrix in="SourceAlpha" type="matrix" values="0 0 0 0 0 0 0 0 0 0 0 0 0 0 0 0 0 0 127 0" result="hardAlpha"/>
<feOffset dy="2"/>
<feGaussianBlur stdDeviation="4"/>
<feComposite in2="hardAlpha" operator="out"/>
<feColorMatrix type="matrix" values="0 0 0 0 0 0 0 0 0 0 0 0 0 0 0 0 0 0 0.1 0"/>
<feBlend mode="normal" in2="BackgroundImageFix" result="effect1_dropShadow_223_220"/>
<feBlend mode="normal" in="SourceGraphic" in2="effect1_dropShadow_223_220" result="shape"/>
</filter>
</defs>
</svg>
